<svg xmlns="http://www.w3.org/2000/svg" xmlns:xlink="http://www.w3.org/1999/xlink" version="1.1" x="0px" y="0px" viewBox="0 0 100 125" enable-background="new 0 0 100 100" xml:space="preserve"><g><path d="M50,89.549c-27.339,0-49.582-15.939-49.582-35.532c0-6.179,2.179-12.199,6.312-17.467V10.452l32.354,8.892   c7.126-1.141,14.706-1.141,21.831,0l32.355-8.893l-0.008,26.146c4.137,5.287,6.317,11.291,6.317,17.419   C99.58,73.609,77.339,89.549,50,89.549z M11.73,17.011v21.322l-0.576,0.694c-3.752,4.526-5.736,9.71-5.736,14.989   c0,16.836,19.999,30.532,44.582,30.532c24.581,0,44.58-13.696,44.58-30.532c0-5.229-1.986-10.397-5.745-14.947l-0.572-0.693   l0.006-21.365l-27.09,7.445l-0.545-0.092c-6.92-1.169-14.347-1.169-21.269,0l-0.545,0.092L11.73,17.011z"/></g><g><path fill="none" d="M70.661,65.861c-0.401-1.157-0.694-2.314-0.921-3.473c-0.365-1.977-0.537-3.953-0.533-5.93   c0.002-1.979,0.174-3.955,0.541-5.932c0.214-1.099,0.486-2.198,0.854-3.297c-0.023,0.004-0.046,0.004-0.068,0.008   c-6.401,1.128-11.103,7.606-12.583,9.893C59.216,61.097,64.39,65.549,70.661,65.861z"/><path fill="none" d="M72.751,47.066c0.397,1.153,0.689,2.307,0.915,3.461c0.367,1.977,0.537,3.953,0.539,5.932   c0.004,1.977-0.166,3.953-0.533,5.93c-0.222,1.139-0.509,2.277-0.898,3.415c0.336-0.034,0.672-0.066,1.012-0.126   c7.619-1.344,12.152-8.613,11.956-13.446C83.822,50.78,78.407,47.113,72.751,47.066z"/><path d="M90.573,50.487l-0.154-0.875l-0.672-0.581c-0.401-0.349-9.96-8.501-20.082-6.716C59.544,44.1,53.351,55.03,53.093,55.494   l-0.433,0.777l0.154,0.873c1.368,7.763,11.206,15.332,21.839,13.457S91.942,58.249,90.573,50.487z M57.951,57.132   c1.48-2.287,6.182-8.765,12.583-9.893c0.022-0.004,0.045-0.004,0.068-0.008c-0.368,1.099-0.641,2.198-0.854,3.297   c-0.367,1.977-0.539,3.953-0.541,5.932c-0.004,1.977,0.168,3.953,0.533,5.93c0.227,1.158,0.52,2.315,0.921,3.473   C64.39,65.549,59.216,61.097,57.951,57.132z M73.785,65.678c-0.34,0.06-0.676,0.092-1.012,0.126   c0.39-1.138,0.677-2.276,0.898-3.415c0.367-1.977,0.537-3.953,0.533-5.93c-0.002-1.979-0.172-3.955-0.539-5.932   c-0.226-1.154-0.518-2.308-0.915-3.461c5.656,0.047,11.071,3.714,12.99,5.165C85.938,57.064,81.404,64.334,73.785,65.678z"/></g><g><path fill="none" d="M29.339,65.861c0.401-1.157,0.694-2.314,0.921-3.473c0.365-1.977,0.537-3.953,0.533-5.93   c-0.002-1.979-0.174-3.955-0.541-5.932c-0.214-1.099-0.486-2.198-0.854-3.296c0.023,0.004,0.046,0.004,0.068,0.008   c6.401,1.128,11.103,7.605,12.583,9.893C40.784,61.097,35.61,65.549,29.339,65.861z"/><path fill="none" d="M27.249,47.067c-0.397,1.153-0.689,2.307-0.915,3.46c-0.367,1.977-0.537,3.953-0.539,5.932   c-0.004,1.977,0.166,3.953,0.533,5.93c0.222,1.139,0.509,2.277,0.898,3.415c-0.336-0.034-0.672-0.066-1.012-0.126   c-7.619-1.344-12.152-8.613-11.956-13.446C16.178,50.78,21.593,47.114,27.249,47.067z"/><path d="M25.347,70.602c10.633,1.875,20.471-5.694,21.839-13.457l0.154-0.873l-0.433-0.777C46.649,55.03,40.456,44.1,30.335,42.315   c-10.122-1.785-19.681,6.368-20.082,6.716l-0.672,0.581l-0.154,0.875C8.058,58.249,14.714,68.727,25.347,70.602z M29.339,65.861   c0.401-1.157,0.694-2.314,0.921-3.473c0.365-1.977,0.537-3.953,0.533-5.93c-0.002-1.979-0.174-3.955-0.541-5.932   c-0.214-1.099-0.486-2.198-0.854-3.296c0.023,0.004,0.046,0.004,0.068,0.008c6.401,1.128,11.103,7.605,12.583,9.893   C40.784,61.097,35.61,65.549,29.339,65.861z M14.259,52.231c1.919-1.451,7.334-5.118,12.99-5.165   c-0.397,1.153-0.689,2.307-0.915,3.46c-0.367,1.977-0.537,3.953-0.539,5.932c-0.004,1.977,0.166,3.953,0.533,5.93   c0.222,1.139,0.509,2.277,0.898,3.415c-0.336-0.034-0.672-0.066-1.012-0.126C18.596,64.334,14.062,57.064,14.259,52.231z"/></g><text x="0" y="115" fill="#000000" font-size="5px" font-weight="bold" font-family="'Helvetica Neue', Helvetica, Arial-Unicode, Arial, Sans-serif">Created by Anja</text><text x="0" y="120" fill="#000000" font-size="5px" font-weight="bold" font-family="'Helvetica Neue', Helvetica, Arial-Unicode, Arial, Sans-serif">from the Noun Project</text></svg>