<svg xmlns="http://www.w3.org/2000/svg" xmlns:xlink="http://www.w3.org/1999/xlink" version="1.1" x="0px" y="0px" viewBox="0 0 128 160" style="enable-background:new 0 0 128 128;" xml:space="preserve"><path d="M29,128h38V0H29V128z M33,119h10v-2H33v-4h6v-2h-6v-4h6v-2h-6v-4h10v-2H33v-4h6v-2h-6v-4h6v-2h-6v-4h10v-2H33v-4h6v-2h-6v-4  h6v-2h-6v-4h10v-2H33v-4h6v-2h-6v-4h6v-2h-6v-4h10v-2H33v-4h6v-2h-6v-4h6v-2h-6v-4h10v-2H33v-4h6v-2h-6v-4h6v-2h-6v-4h10V9H33V4h30  v120H33V119z"/><path d="M93,0H77c-3.3,0-6,2.7-6,6v82.3L85,128l14-39.7V6C99,2.7,96.3,0,93,0z M83,4h4v83.2l-2,2l-2-2V4z M75,87.2V6  c0-1.1,0.9-2,2-2h2v83.2l-2,2L75,87.2z M86.7,111.1h-3.4L77.2,94c0.4,0,0.9-0.2,1.2-0.5l2.6-2.6l2.6,2.6C84,93.8,84.5,94,85,94  s1-0.2,1.4-0.6l2.6-2.6l2.6,2.6c0.3,0.3,0.8,0.5,1.2,0.6L86.7,111.1z M95,87.2l-2,2l-2-2V4h2c1.1,0,2,0.9,2,2V87.2z"/><text x="0" y="143" fill="#000000" font-size="5px" font-weight="bold" font-family="'Helvetica Neue', Helvetica, Arial-Unicode, Arial, Sans-serif">Created by Creative Mahira</text><text x="0" y="148" fill="#000000" font-size="5px" font-weight="bold" font-family="'Helvetica Neue', Helvetica, Arial-Unicode, Arial, Sans-serif">from the Noun Project</text></svg>