<svg width="66" height="66" viewBox="0 0 66 66" fill="none" xmlns="http://www.w3.org/2000/svg">
<path d="M33 0.153809C26.5721 0.153809 20.2886 2.0599 14.944 5.63104C9.59938 9.20219 5.43378 14.278 2.97393 20.2166C0.514082 26.1552 -0.129527 32.6899 1.12449 38.9942C2.37851 45.2986 5.47384 51.0896 10.019 55.6348C14.5642 60.18 20.3552 63.2753 26.6596 64.5293C32.964 65.7833 39.4986 65.1397 45.4372 62.6799C51.3758 60.22 56.4516 56.0544 60.0228 50.7098C63.5939 45.3652 65.5 39.0817 65.5 32.6538C65.5 24.0343 62.0759 15.7678 55.981 9.67284C49.886 3.57791 41.6195 0.153809 33 0.153809V0.153809ZM17.179 23.6643C17.5645 22.7351 18.2252 21.9461 19.0723 21.4035C19.9193 20.8608 20.9122 20.5905 21.9175 20.6288C25.5965 20.6288 29.2755 20.6288 32.9675 20.6288C36.6595 20.6288 40.3515 20.6288 44.0175 20.6288C45.0118 20.5865 45.996 20.8424 46.8438 21.3636C47.6917 21.8848 48.3643 22.6475 48.7755 23.5538C48.8581 23.6685 48.9121 23.8013 48.9328 23.9411C48.9535 24.0809 48.9404 24.2236 48.8946 24.3573C48.8487 24.491 48.7715 24.6118 48.6693 24.7095C48.5672 24.8072 48.4431 24.879 48.3075 24.9188L33.65 32.5563C33.465 32.6623 33.2555 32.7181 33.0423 32.7181C32.829 32.7181 32.6195 32.6623 32.4345 32.5563L17.5885 24.8538C17.4706 24.8187 17.3628 24.7559 17.2741 24.6708C17.1853 24.5857 17.1181 24.4806 17.078 24.3643C17.038 24.248 17.0263 24.1238 17.0438 24.0021C17.0614 23.8803 17.1077 23.7645 17.179 23.6643ZM49.159 40.4928C48.9743 41.6717 48.3703 42.7443 47.4579 43.5134C46.5455 44.2825 45.3862 44.6963 44.193 44.6788C41.177 44.6788 38.161 44.6788 35.1515 44.6788H21.9045C20.78 44.7036 19.6798 44.3499 18.7804 43.6745C17.8811 42.9991 17.2347 42.0411 16.945 40.9543C16.8286 40.5306 16.7674 40.0937 16.763 39.6543C16.763 36.1183 16.763 32.5823 16.763 29.0398C16.763 28.1233 17.335 27.7853 18.1605 28.2078C22.7755 30.6085 27.3862 33.0135 31.9925 35.4228C32.3024 35.6064 32.656 35.7033 33.0163 35.7033C33.3765 35.7033 33.7301 35.6064 34.04 35.4228C38.6247 33.0178 43.2158 30.6345 47.8135 28.2728C47.9435 28.197 48.0835 28.1401 48.2295 28.1038C48.3536 28.0609 48.4866 28.0503 48.6159 28.073C48.7452 28.0956 48.8667 28.1509 48.9688 28.2334C49.0708 28.316 49.1502 28.4232 49.1994 28.545C49.2486 28.6667 49.266 28.799 49.25 28.9293C49.25 31.993 49.25 35.0545 49.25 38.1138C49.285 38.908 49.2546 39.7036 49.159 40.4928Z" fill="#39858F"/>
</svg>
