<svg xmlns="http://www.w3.org/2000/svg" xmlns:xlink="http://www.w3.org/1999/xlink" version="1.1" baseProfile="tiny" x="0px" y="0px" viewBox="0 0 24 30" overflow="scroll" xml:space="preserve"><path d="M9,10.25c1.2407227,0,2.25-0.9951172,2.25-2.21875S10.2407227,5.8125,9,5.8125S6.75,6.8076172,6.75,8.03125  S7.7592773,10.25,9,10.25z M9,7.3125c0.4135742,0,0.75,0.3222656,0.75,0.71875S9.4135742,8.75,9,8.75S8.25,8.4277344,8.25,8.03125  S8.5864258,7.3125,9,7.3125z"/><path d="M15,10.25c1.2407227,0,2.25-0.9951172,2.25-2.21875S16.2407227,5.8125,15,5.8125s-2.25,0.9951172-2.25,2.21875  S13.7592773,10.25,15,10.25z M15,7.3125c0.4135742,0,0.75,0.3222656,0.75,0.71875S15.4135742,8.75,15,8.75  s-0.75-0.3222656-0.75-0.71875S14.5864258,7.3125,15,7.3125z"/><path d="M4.0507813,23.5c0.1328125,0,1.3295898-0.0322266,2.5068359-1.1640625c0.0004883,0,0.0004883,0,0.0004883-0.0009766  c0.2529297-0.2431641,0.9448242-0.7460938,1.4672852-0.7460938c0.5566406,0,1.2646484,0.5537109,1.4677734,0.7470703  C9.6171875,22.4550781,10.7407227,23.5,12,23.5s2.3828125-1.0449219,2.5073242-1.1650391  c0.2529297-0.2431641,0.9448242-0.7460938,1.4672852-0.7460938c0.5566406,0,1.2646484,0.5537109,1.4677734,0.7470703  C17.5664063,22.4550781,18.6899414,23.5,19.9492188,23.5c0.2807617,0,0.5673828-0.0449219,0.8759766-0.1386719  c0.3168945-0.0947266,0.5336914-0.3867188,0.5336914-0.7177734V9.5292969C21.3588867,4.5507813,17.1606445,0.5,12,0.5  S2.6411133,4.5507813,2.6411133,9.5292969v13.078125c0,0.3232422,0.2070313,0.609375,0.5131836,0.7119141  C3.6157227,23.4726563,3.9506836,23.4960938,4.0507813,23.5z M4.1411133,9.5292969C4.1411133,5.3779297,7.6665039,2,12,2  s7.8588867,3.3779297,7.8588867,7.5292969v12.4658203c-0.5405273-0.0527344-1.1855469-0.5585938-1.3769531-0.7402344  c-0.1240234-0.1201172-1.2480469-1.1660156-2.5073242-1.1660156s-2.3833008,1.0458984-2.5068359,1.1650391  C13.2143555,21.4970703,12.5224609,22,12,22c-0.5566406,0-1.2651367-0.5537109-1.4672852-0.7451172  c-0.1240234-0.1201172-1.2480469-1.1660156-2.5073242-1.1660156c-1.2587891,0-2.3818359,1.0449219-2.5068359,1.1650391  c-0.6176758,0.59375-1.2109375,0.7158203-1.3774414,0.7412109V9.5292969z"/><path d="M7.4506836,17.25h9.0986328c0.4140625,0,0.7436523-0.2441406,0.7436523-0.6582031  c0.0053711-0.0371094,0.0102539-0.09375,0.0102539-0.1308594c0-2.8720703-2.3789063-5.2089844-5.3032227-5.2089844  s-5.3032227,2.3369141-5.3032227,5.2089844L6.7006836,16.5C6.7006836,16.9140625,7.0366211,17.25,7.4506836,17.25z M12,12.7519531  c1.871582,0,3.4321289,1.3251953,3.7504883,2.9980469H8.2670898C8.6079102,14.0439453,10.1523438,12.7519531,12,12.7519531z"/><text x="0" y="39" fill="#000000" font-size="5px" font-weight="bold" font-family="'Helvetica Neue', Helvetica, Arial-Unicode, Arial, Sans-serif">Created by Strongicon</text><text x="0" y="44" fill="#000000" font-size="5px" font-weight="bold" font-family="'Helvetica Neue', Helvetica, Arial-Unicode, Arial, Sans-serif">from the Noun Project</text></svg>