<svg width="66" height="66" viewBox="0 0 66 66" fill="none" xmlns="http://www.w3.org/2000/svg">
<path d="M60.7102 16.7462C57.8039 11.6418 53.8618 7.60068 48.8827 4.62187C43.903 1.64291 38.4665 0.153809 32.5695 0.153809C26.6733 0.153809 21.2351 1.64337 16.2563 4.62187C11.2768 7.60053 7.33483 11.6418 4.42859 16.7462C1.5228 21.8504 0.0698242 27.4242 0.0698242 33.4675C0.0698242 40.7269 2.13597 47.2547 6.2693 53.0527C10.4022 58.8511 15.7413 62.8633 22.2861 65.0899C23.0479 65.2349 23.6119 65.1329 23.9786 64.7867C24.3454 64.4399 24.5286 64.0057 24.5286 63.4858C24.5286 63.3991 24.5213 62.6186 24.5073 61.1434C24.4927 59.6683 24.4859 58.3814 24.4859 57.2834L23.5126 57.456C22.892 57.5726 22.1091 57.6219 21.1639 57.608C20.2192 57.5944 19.2384 57.4929 18.223 57.3042C17.2071 57.1172 16.2622 56.6834 15.3876 56.0038C14.5134 55.3242 13.8928 54.4347 13.526 53.3365L13.1028 52.3383C12.8208 51.6737 12.3767 50.9355 11.7701 50.1263C11.1634 49.3163 10.55 48.7672 9.92937 48.4781L9.63309 48.2607C9.43566 48.1162 9.25246 47.9419 9.08305 47.7397C8.91379 47.5375 8.78706 47.3351 8.70243 47.1324C8.61765 46.9296 8.68791 46.7632 8.91394 46.6327C9.13997 46.5022 9.54845 46.4389 10.1412 46.4389L10.9872 46.5685C11.5515 46.6844 12.2494 47.0306 13.0819 47.6094C13.914 48.1876 14.5981 48.9394 15.1342 49.8644C15.7834 51.0504 16.5655 51.9541 17.4828 52.5759C18.3994 53.1978 19.3235 53.5082 20.2543 53.5082C21.1851 53.5082 21.9891 53.4359 22.6664 53.292C23.343 53.1473 23.9778 52.9299 24.5705 52.6409C24.8244 50.7026 25.5157 49.2135 26.6438 48.1726C25.036 47.9994 23.5904 47.7385 22.3064 47.3916C21.0231 47.0443 19.697 46.4806 18.329 45.6991C16.9602 44.9186 15.8247 43.9494 14.9222 42.7932C14.0196 41.6364 13.2788 40.1177 12.7009 38.2384C12.1227 36.3584 11.8335 34.1897 11.8335 31.7317C11.8335 28.2319 12.9481 25.2537 15.1768 22.7954C14.1328 20.1642 14.2314 17.2146 15.4728 13.9468C16.291 13.6862 17.5043 13.8818 19.1122 14.5322C20.7203 15.1829 21.8978 15.7404 22.6457 16.2026C23.3936 16.6646 23.9928 17.0561 24.4443 17.3737C27.0685 16.622 29.7765 16.2462 32.5692 16.2462C35.3619 16.2462 38.0706 16.622 40.6949 17.3737L42.3029 16.3331C43.4026 15.6387 44.7011 15.0024 46.1954 14.424C47.6906 13.8459 48.834 13.6867 49.6243 13.9473C50.8933 17.2152 51.0064 20.1647 49.9621 22.7959C52.1907 25.2542 53.3057 28.2331 53.3057 31.7321C53.3057 34.1901 53.0155 36.3657 52.4382 38.2601C51.8601 40.1549 51.113 41.6721 50.1964 42.8149C49.2788 43.9576 48.136 44.9192 46.768 45.6996C45.3996 46.4805 44.0731 47.0442 42.7898 47.3915C41.506 47.7388 40.0604 47.9998 38.4526 48.1733C39.919 49.4742 40.6524 51.5276 40.6524 54.3326V63.4846C40.6524 64.0045 40.8288 64.4386 41.1818 64.7855C41.5344 65.1317 42.0913 65.2337 42.8531 65.0886C49.3988 62.8623 54.7379 58.8499 58.8706 53.0515C63.0029 47.2535 65.0698 40.7257 65.0698 33.4663C65.0683 27.4238 63.6146 21.8504 60.7102 16.7462Z" fill="#39858F"/>
</svg>
