<svg xmlns="http://www.w3.org/2000/svg" xmlns:xlink="http://www.w3.org/1999/xlink" version="1.1" x="0px" y="0px" viewBox="0 0 100 125" enable-background="new 0 0 100 100" xml:space="preserve"><path d="M76.705,81.602c0.001-0.019,0.011-0.034,0.011-0.053c0-2.621-1.687-4.935-4.107-5.775c-0.332-3.061-2.93-5.449-6.075-5.449  c-0.708,0-1.382,0.136-2.016,0.358l-0.285-8.317c2.555-0.536,9.363-2.816,9.363-11.896V29.95c0-2.683-2.116-4.865-4.718-4.865  c-2.518,0-4.416,2.083-4.416,4.841l-0.026,10.076c-0.228-0.058-0.478-0.083-0.719-0.077V22.95c0-2.683-2.116-4.865-4.717-4.865  c-2.602,0-4.718,2.183-4.718,4.865v16.432c-0.358-0.077-0.783-0.116-1.226-0.086V20.95c0-2.683-2.116-4.865-4.717-4.865  c-2.602,0-4.718,2.183-4.718,4.865v18.17c-0.444-0.014-0.864,0.059-1.225,0.169V23.95c0-2.683-2.116-4.865-4.717-4.865  c-2.602,0-4.718,2.183-4.718,4.865v18.389c-0.441-0.418-0.991-0.864-1.685-1.291l-2.178-4.026c-0.832-1.54-2.412-2.496-4.123-2.496  c-0.812,0-1.615,0.219-2.324,0.634c-2.223,1.299-3.033,4.212-1.832,6.527c0.267,0.758,2.366,6.506,6.735,12.893  c3.832,5.604,9.261,7.302,11.404,7.771l-0.304,8.844c-0.915-0.549-1.981-0.871-3.124-0.871c-3.146,0-5.745,2.389-6.076,5.449  c-2.421,0.842-4.107,3.154-4.107,5.775c0,0.306,0.146,0.57,0.362,0.753c-3.193,1.415-5.429,4.61-5.429,8.321c0,0.552,0.447,1,1,1  h62.375c0.553,0,1-0.448,1-1C84.658,85.994,81.183,82.169,76.705,81.602z M29.207,53.451c-4.43-6.475-6.501-12.43-6.521-12.489  c-0.019-0.052-0.04-0.103-0.066-0.151c-0.751-1.389-0.283-3.15,1.043-3.925c1.265-0.739,2.97-0.224,3.678,1.087l2.309,4.268  c0.088,0.162,0.219,0.297,0.378,0.39c1.347,0.781,2.067,1.664,2.543,2.248c0.418,0.513,0.779,0.956,1.412,0.956  c0.008,0,0.014-0.004,0.021-0.004c0.062,0.025,0.117,0.062,0.186,0.074c0.129,0.023,12.973,2.386,16.624,7.297  c0.181,0.243,0.461,0.391,0.764,0.402c0.013,0.001,0.026,0.002,0.039,0.002c0.288,0,0.562-0.125,0.753-0.342  c0.021-0.025,2.179-2.422,7.61-2.575c0.552-0.016,0.987-0.476,0.972-1.028s-0.487-1.001-1.028-0.971  c-4.354,0.123-6.966,1.573-8.199,2.498c-4.288-4.496-14.466-6.719-16.742-7.169L34.963,23.95c0-1.58,1.219-2.865,2.718-2.865  c1.498,0,2.717,1.285,2.717,2.865v16.929c0,0.276,0.114,0.541,0.316,0.729c0.201,0.189,0.475,0.287,0.748,0.269  c0.281-0.019,0.479-0.139,0.688-0.267c0.422-0.259,1.277-0.699,2.038-0.332c0.31,0.15,0.676,0.129,0.966-0.054  c0.292-0.183,0.469-0.502,0.469-0.847V20.95c0-1.58,1.219-2.865,2.718-2.865c1.498,0,2.717,1.285,2.717,2.865v19.572  c0,0.325,0.158,0.63,0.424,0.817c0.267,0.188,0.608,0.234,0.913,0.125c0.331-0.119,0.658-0.179,0.972-0.179  c0.67,0,1.116,0.269,1.308,0.384c0.123,0.074,0.31,0.187,0.584,0.193c0.314,0.019,0.532-0.095,0.724-0.284  c0.193-0.188,0.302-0.446,0.302-0.716V22.95c0-1.58,1.219-2.865,2.718-2.865c1.498,0,2.717,1.285,2.717,2.865v18.229  c0,0.344,0.182,0.663,0.474,0.845c0.291,0.182,0.659,0.201,0.972,0.05c0.106-0.051,0.551-0.196,0.796-0.13  c0.368,0.1,0.724,0.35,0.825,0.434c0.297,0.253,0.713,0.31,1.066,0.147c0.354-0.163,0.581-0.516,0.582-0.906l0.03-11.69  c0-1.37,0.756-2.844,2.416-2.844c1.499,0,2.718,1.285,2.718,2.865v20.519c0,9.244-8.127,10.027-8.47,10.057  c-0.534,0.041-0.94,0.496-0.922,1.031l0.352,10.257c-1.145,0.985-1.928,2.379-2.099,3.96c-0.786,0.273-1.482,0.714-2.081,1.258  v-3.756h1.416c0.553,0,1-0.448,1-1c0-0.553-0.447-1-1-1h-1.416v-2.244h1.363c0.553,0,1-0.448,1-1c0-0.553-0.447-1-1-1h-1.363v-2.666  c0-0.553-0.447-1-1-1s-1,0.447-1,1v2.666h-1.47c-0.553,0-1,0.447-1,1c0,0.552,0.447,1,1,1h1.47v2.244h-1.417c-0.553,0-1,0.447-1,1  c0,0.552,0.447,1,1,1h1.417v6.91c0,0.117,0.029,0.227,0.066,0.331c-0.058,0.337-0.093,0.681-0.093,1.032  c0,0.061,0.024,0.114,0.035,0.172c-1.434,0.301-2.773,0.938-3.914,1.882c-1.871-1.552-4.276-2.288-6.763-2.018  c0.001-0.013,0.008-0.023,0.008-0.036c0-2.621-1.687-4.935-4.107-5.775c-0.108-1.002-0.479-1.919-1.014-2.717l0.395-11.5  c0.019-0.52-0.365-0.967-0.882-1.027C40.041,60.521,33.469,59.681,29.207,53.451z"/><text x="0" y="115" fill="#000000" font-size="5px" font-weight="bold" font-family="'Helvetica Neue', Helvetica, Arial-Unicode, Arial, Sans-serif">Created by mungang kim</text><text x="0" y="120" fill="#000000" font-size="5px" font-weight="bold" font-family="'Helvetica Neue', Helvetica, Arial-Unicode, Arial, Sans-serif">from the Noun Project</text></svg>