<svg width="1099" height="767" viewBox="0 0 1099 767" fill="none" xmlns="http://www.w3.org/2000/svg">
<rect x="573.304" y="624.439" width="139.826" height="139.354" stroke="#BBBBBB" stroke-width="3"/>
<path d="M714.63 -377.315H571.804V574.858H714.63V385.682L928.869 765.292H1095.5L786.043 193.989L1095.5 -377.315H928.869L714.63 18.4321V-377.315Z" stroke="#BBBBBB" stroke-width="3"/>
<mask id="path-3-inside-1" fill="white">
<path fill-rule="evenodd" clip-rule="evenodd" d="M428.978 -377.315H286.153V-234.961H428.978V-377.315ZM428.978 -163.076H286.153V619.161H143.327V192.1H0.500916V761.515H143.327L286.153 761.514H428.978V-163.076Z"/>
</mask>
<path d="M286.153 -377.315V-380.315H283.153V-377.315H286.153ZM428.978 -377.315H431.978V-380.315H428.978V-377.315ZM286.153 -234.961H283.153V-231.961H286.153V-234.961ZM428.978 -234.961V-231.961H431.978V-234.961H428.978ZM286.153 -163.076V-166.076H283.153V-163.076H286.153ZM428.978 -163.076H431.978V-166.076H428.978V-163.076ZM286.153 619.161V622.161H289.153V619.161H286.153ZM143.327 619.161H140.327V622.161H143.327V619.161ZM143.327 192.1H146.327V189.1H143.327V192.1ZM0.500916 192.1V189.1H-2.49908V192.1H0.500916ZM0.500916 761.515H-2.49908V764.515H0.500916V761.515ZM143.327 761.515L143.327 764.515L143.327 764.515L143.327 761.515ZM286.153 761.514L286.153 758.514L286.153 758.514L286.153 761.514ZM428.978 761.514V764.514H431.978V761.514H428.978ZM286.153 -374.315H428.978V-380.315H286.153V-374.315ZM289.153 -234.961V-377.315H283.153V-234.961H289.153ZM428.978 -237.961H286.153V-231.961H428.978V-237.961ZM425.978 -377.315V-234.961H431.978V-377.315H425.978ZM286.153 -160.076H428.978V-166.076H286.153V-160.076ZM289.153 619.161V-163.076H283.153V619.161H289.153ZM143.327 622.161H286.153V616.161H143.327V622.161ZM140.327 192.1V619.161H146.327V192.1H140.327ZM0.500916 195.1H143.327V189.1H0.500916V195.1ZM3.50092 761.515V192.1H-2.49908V761.515H3.50092ZM143.327 758.515H0.500916V764.515H143.327V758.515ZM286.153 758.514L143.327 758.515L143.327 764.515L286.153 764.514L286.153 758.514ZM428.978 758.514H286.153V764.514H428.978V758.514ZM425.978 -163.076V761.514H431.978V-163.076H425.978Z" fill="#BBBBBB" mask="url(#path-3-inside-1)"/>
</svg>
