<svg width="66" height="66" viewBox="0 0 66 66" fill="none" xmlns="http://www.w3.org/2000/svg">
<g clip-path="url(#clip0)">
<path d="M32.7849 0.154053C14.8349 0.154053 0.284912 14.704 0.284912 32.654C0.284912 50.6041 14.8349 65.154 32.7849 65.154C50.7349 65.154 65.2849 50.6041 65.2849 32.654C65.2849 14.704 50.7349 0.154053 32.7849 0.154053ZM32.7849 60.0759C17.6398 60.0759 5.36304 47.7992 5.36304 32.654C5.36304 17.5089 17.6398 5.23218 32.7849 5.23218C47.93 5.23218 60.2068 17.5089 60.2068 32.654C60.2068 47.7992 47.93 60.0759 32.7849 60.0759Z" fill="#39858F"/>
<path d="M16.5471 48.8901H22.6409V24.5151H16.5471V48.8901ZM40.9221 24.5151C35.7051 24.6025 33.1384 28.4051 32.7971 28.5776V24.5151H26.7034V48.8901H32.7971V34.6714C32.7971 34.1499 34.0825 29.9741 38.8909 30.6089C41.4736 30.7775 42.866 34.1933 42.9534 34.6714V48.8901L49.0233 48.9179V32.0431C48.8091 29.6071 47.5911 24.6024 40.9221 24.5151ZM19.594 16.3901C17.9119 16.3901 16.5471 17.7529 16.5471 19.437C16.5471 21.1212 17.9119 22.4839 19.594 22.4839C21.2761 22.4839 22.6409 21.1212 22.6409 19.437C22.6409 17.7529 21.2761 16.3901 19.594 16.3901Z" fill="#39858F"/>
</g>
<defs>
<clipPath id="clip0">
<rect width="65" height="65" fill="white" transform="matrix(1 0 0 -1 0.284912 65.1541)"/>
</clipPath>
</defs>
</svg>
