<svg width="100" height="100" viewBox="0 0 100 100" fill="none" xmlns="http://www.w3.org/2000/svg">
<circle cx="50" cy="50" r="50" fill="#39858F"/>
<path d="M26.1304 73.8664H35.0882V38.0354H26.1304V73.8664ZM61.9613 38.0354C54.2924 38.1639 50.5194 43.7537 50.0177 44.0073V38.0354H41.06V73.8664H50.0177V52.9651C50.0177 52.1985 51.9072 46.0601 58.9755 46.9932C62.772 47.2411 64.8188 52.2623 64.9473 52.9651V73.8664L73.87 73.9072V49.1015C73.5551 45.5206 71.7646 38.1638 61.9613 38.0354ZM30.6093 26.0918C28.1366 26.0918 26.1304 28.0951 26.1304 30.5707C26.1304 33.0464 28.1366 35.0496 30.6093 35.0496C33.0819 35.0496 35.0882 33.0464 35.0882 30.5707C35.0882 28.0951 33.0819 26.0918 30.6093 26.0918Z" fill="white"/>
</svg>
